<?xml version="1.0" encoding="utf-8"?>
<!-- Generator: Adobe Illustrator 21.1.0, SVG Export Plug-In . SVG Version: 6.00 Build 0)  -->
<svg version="1.1" id="Layer_1" xmlns="http://www.w3.org/2000/svg" xmlns:xlink="http://www.w3.org/1999/xlink" x="0px" y="0px"
	 viewBox="0 0 24 24" style="enable-background:new 0 0 24 24;" xml:space="preserve">
<style type="text/css">
	.st0{fill:#9C9C9C;}
</style>
<title>icon-internet</title>
<g id="Layer_2">
	<g id="Layer_1-2">
		<path id="internet" class="st0" d="M11.9,24c-6.6,0-12-5.4-12-12S5.3,0,12,0s12,5.4,12,12S18.6,24,11.9,24L11.9,24z M11.9,2
			C6.4,2,2,6.4,2,12s4.5,10,10,10s10-4.5,10-10C21.9,6.4,17.5,2,11.9,2L11.9,2z M12.9,23.8c-0.6,0-1-0.4-1-1c0-0.3,0.1-0.6,0.3-0.7
			c5.6-4.8,6.2-13.3,1.4-18.9c-0.4-0.5-0.9-1-1.4-1.4c-0.4-0.4-0.3-1.1,0.1-1.4c0.3-0.3,0.7-0.3,1.1-0.1l0.1,0.1
			c6.4,5.6,7.2,15.3,1.6,21.7c-0.5,0.6-1,1.1-1.6,1.6C13.4,23.8,13.2,23.9,12.9,23.8L12.9,23.8z M10.9,23.8c-0.2,0-0.5-0.1-0.7-0.2
			C3.8,18,3.1,8.3,8.7,1.8c0.5-0.6,1-1.1,1.6-1.6c0.4-0.3,1.1-0.3,1.4,0.2c0.3,0.4,0.3,1-0.1,1.3C6,6.6,5.4,15.1,10.2,20.7
			c0.4,0.5,0.9,1,1.4,1.4c0.4,0.4,0.5,1,0.1,1.4C11.5,23.7,11.2,23.8,10.9,23.8L10.9,23.8z M11.9,23.9c-0.6,0-1-0.4-1-1V1
			c0-0.6,0.4-1,1-1s1,0.4,1,1v22C12.9,23.5,12.5,24,11.9,23.9L11.9,23.9z M22,8.9H2c-0.6,0-1-0.4-1-1s0.4-1,1-1h20c0.6,0,1,0.4,1,1
			S22.5,8.9,22,8.9z M22,16.9H2c-0.6,0-1-0.4-1-1c0-0.6,0.4-1,1-1h20c0.6,0,1,0.4,1.1,0.9c0,0.6-0.4,1-0.9,1.1H22z"/>
	</g>
</g>
</svg>
